<svg xmlns="http://www.w3.org/2000/svg" width="249" height="26" viewBox="0 0 249 26">
    <path fill="#FFF" fill-rule="evenodd" stroke="#FFF" stroke-width="1.438" d="M3.224 14.085v10.399H1V1.516h9.293c2.523 0 3.917.38 5.145 1.412 1.228 1.033 1.825 2.583 1.825 4.614 0 2.755-1.029 4.408-3.485 5.579 1.826.791 2.622 2.238 2.821 5.096l.2 2.995c.132 1.756.398 2.376 1.36 3.272h-2.92c-.366-.861-.498-1.516-.598-2.617l-.199-2.617c-.299-3.96-1.328-5.165-4.348-5.165h-6.87zm0-1.825h6.67c2.026 0 3.12-.31 3.95-1.102.83-.758 1.262-1.928 1.262-3.306 0-1.343-.432-2.513-1.261-3.27-.83-.793-1.892-1.103-3.95-1.103H3.224v8.78zm40.716 4.993h-9.725l-2.622 7.23h-2.257l8.563-22.967h2.323l8.73 22.968h-2.29l-2.722-7.231zm-.697-1.825L38.994 3.892 34.88 15.428h8.364zm26.178 9.056h-2.224L59.066 1.516h2.423l5.277 15.805c.465 1.343.465 1.343.962 2.858.2.586.399 1.171.598 1.79.83-2.616.93-2.926 1.527-4.648L75.03 1.516h2.357L69.42 24.484zm35.107-22.968V3.48h-12.58v8.299H103.5v1.825h-11.55v8.918h12.844v1.963H89.725V1.516h14.803zm30.56 22.968h-2.29L119.92 4.306c.1 1.308.133 2.41.133 3.615l.033 2.79v13.773h-1.992V1.516h2.29l12.878 20.11c-.1-1.86-.166-6.508-.166-9.435V1.516h1.992v22.968zm32.451-16.46h-2.29c-.763-3.167-3.253-5.061-6.605-5.061-4.746 0-7.7 3.89-7.7 10.158 0 6.06 2.954 9.916 7.634 9.916 3.783 0 6.472-2.582 7.102-6.783h2.158c-.797 5.544-4.182 8.746-9.293 8.746-6.074 0-9.825-4.58-9.825-11.983C148.72 5.614 152.57 1 158.744 1c4.58 0 7.899 2.651 8.795 7.024zM190.3 1c6.24 0 10.29 4.752 10.29 12.155 0 7.024-4.183 11.845-10.257 11.845-6.14 0-10.255-4.82-10.255-12.017C180.077 5.82 184.192 1 190.299 1zm0 1.963c-2.356 0-4.547 1.102-6.007 2.995-1.295 1.688-1.992 4.167-1.992 7.025 0 6.06 3.187 10.054 8.032 10.054 4.813 0 8.032-3.994 8.032-9.916 0-2.996-.663-5.407-1.991-7.163-1.394-1.859-3.684-2.995-6.074-2.995zm26.146-1.447v22.968h-2.224V1.516h2.224zM248 24.484h-2.29L232.832 4.306c.1 1.308.133 2.41.133 3.615l.033 2.79v13.773h-1.991V1.516h2.29l12.878 20.11c-.1-1.86-.166-6.508-.166-9.435V1.516H248v22.968z"/>
</svg>
